# xmcd CD database file
#
# Track frame offsets:
#	183
#	31073
#	50755
#
# Disc length: 972 seconds
#
# Revision: 0
# Processed by: cddbd v1.5.1PL0 Copyright (c) Steve Scherf et al.
# Submitted via: CDex 1.50
#
DISCID=1e03ca03
DTITLE=Nartin Mann - meilenweit muﬂ ich geh'n
DYEAR=1991
DGENRE=Country
TTITLE0=meilenweit muﬂ ich geh'n
TTITLE1=meilenweit muﬂ ich geh'n (single version)
TTITLE2=17 Tage (long version)
EXTD=YEAR: 1991
EXTT0=
EXTT1=
EXTT2=
PLAYORDER=
